<?xml version="1.0" encoding="iso-8859-1"?>
<!-- Generator: Adobe Illustrator 17.1.0, SVG Export Plug-In . SVG Version: 6.00 Build 0)  -->
<!DOCTYPE svg PUBLIC "-//W3C//DTD SVG 1.1//EN" "http://www.w3.org/Graphics/SVG/1.1/DTD/svg11.dtd">
<svg xmlns="http://www.w3.org/2000/svg" xmlns:xlink="http://www.w3.org/1999/xlink" version="1.1" id="Capa_1" x="0px" y="0px" viewBox="0 0 511 511" style="enable-background:new 0 0 511 511;" xml:space="preserve" width="512px" height="512px">
<g>
	<path d="M424.958,217.871c-5.818-17.106-11.364-31.801-16.039-42.496c-7.208-16.491-11.223-21.688-17.18-22.241   c-5.344-0.496-10.757-0.969-16.087-1.405c-4.395-0.362-8.265,2.918-8.625,7.322c-0.36,4.403,2.918,8.265,7.322,8.625   c4.448,0.364,8.953,0.753,13.428,1.161c3.474,5.137,11.882,23.675,23.854,59.589c11.428,34.281,21.32,70.336,25.817,94.094   c1.641,8.671,0.179,14.459-4.348,17.202c-11.071,6.709-25.195,8.255-29.279,8.424c-36.966-15.928-91.083-25.046-148.82-25.046   c-57.577,0-111.555,9.069-148.513,24.915c-4.332-0.21-17.959-1.4-28.825-8.103c-4.626-2.854-5.875-7.967-4.174-17.097   c9.922-53.268,39.449-140.517,48.731-153.977c44.075-4.015,88.735-6.05,132.78-6.05c12.513,0,25.228,0.166,37.792,0.493   c4.405,0.118,8.091-3.372,8.206-7.789c0.115-4.417-3.372-8.091-7.789-8.206c-12.702-0.331-25.557-0.499-38.208-0.499   c-45.364,0-91.37,2.135-136.739,6.346c-5.988,0.556-9.981,5.777-17.089,22.349c-4.589,10.699-10.037,25.435-15.754,42.616   c-12.188,36.622-22.786,75.624-27.659,101.786c-2.943,15.8,0.927,27.12,11.503,33.644c17.49,10.789,39.221,10.518,39.422,10.502   c0.896-0.07,1.773-0.292,2.595-0.654c35.033-15.429,87.417-24.277,143.721-24.277c56.104,0,108.317,8.787,143.349,24.114   c0.015,0.008,0.029,0.015,0.044,0.022c1.206,0.603,3.041,0.904,5.492,0.904c3.015,0,6.962-0.456,11.814-1.366   c6.762-1.269,16.708-3.924,25.692-9.368c10.521-6.375,14.703-18.4,11.776-33.861C448.236,293.49,437.427,254.531,424.958,217.871z    M407.755,350.557c1.103,1.148,1.949,2.71,2.15,4.693C409.724,353.462,408.951,351.82,407.755,350.557z" fill="#FFFFFF"/>
	<path d="M323.623,164.41c6.289,0.296,12.646,0.636,18.898,1.012c0.163,0.01,0.325,0.015,0.486,0.015   c4.199,0,7.724-3.274,7.979-7.521c0.265-4.41-3.096-8.2-7.507-8.465c-6.319-0.379-12.747-0.723-19.103-1.022   c-4.424-0.202-8.16,3.201-8.368,7.615S319.21,164.202,323.623,164.41z" fill="#FFFFFF"/>
	<path d="M487.019,179.101h-26.931c-0.55-4.029-1.1-8.068-1.651-12.121c-2.353-17.203-17.747-32.773-34.347-34.711   c-55.923-6.306-112.813-9.503-169.09-9.503c-56.278,0-113.168,3.197-169.123,9.507c-16.57,1.937-31.963,17.506-34.314,34.713   c-0.551,4.05-1.101,8.088-1.651,12.115H23.981C10.758,179.101,0,189.858,0,203.082v80.038c0,13.224,10.758,23.981,23.981,23.981   h8.102c-1.887,13.258-3.757,26.311-5.607,39.118c-1.192,8.205,0.932,16.43,5.981,23.163c5.178,6.905,12.754,11.373,21.378,12.585   c17.241,2.319,34.904,4.376,52.5,6.117c1.011,0.1,2.04,0.15,3.059,0.15c4.584,0,9.07-0.983,13.331-2.921   c30.583-13.909,80.031-22.213,132.275-22.213s101.693,8.304,132.275,22.213c4.261,1.938,8.746,2.921,13.331,2.921   c1.019,0,2.048-0.051,3.06-0.151c17.596-1.74,35.259-3.797,52.548-6.123c8.578-1.207,16.154-5.674,21.332-12.58   c5.048-6.732,7.171-14.958,5.98-23.155c-1.85-12.809-3.721-25.864-5.608-39.125h9.102c13.223,0,23.981-10.758,23.981-23.981   v-80.038C511,189.858,500.242,179.101,487.019,179.101z M23.981,291.101c-4.401,0-7.981-3.581-7.981-7.981v-80.038   c0-4.401,3.58-7.981,7.981-7.981h23.741c-4.518,32.936-8.986,65.021-13.369,96H23.981z M464.744,359.782   c-2.606,3.476-6.427,5.726-10.711,6.328c-17.056,2.294-34.532,4.33-51.941,6.051c-2.751,0.274-5.556-0.213-8.192-1.412   C360.854,355.72,310.228,347.101,255,347.101s-105.854,8.62-138.9,23.648c-2.637,1.2-5.446,1.682-8.191,1.413   c-17.41-1.722-34.886-3.758-51.894-6.045c-4.331-0.609-8.152-2.858-10.758-6.334c-2.477-3.302-3.523-7.302-2.947-11.27   c8.07-55.876,16.517-116.226,25.105-179.366c1.376-10.073,10.872-19.878,20.287-20.979c55.33-6.239,111.616-9.403,167.297-9.403   c55.681,0,111.967,3.164,167.266,9.399c9.446,1.103,18.94,10.908,20.317,20.978c8.591,63.158,17.038,123.507,25.107,179.377   C468.266,352.48,467.22,356.48,464.744,359.782z M495,283.119c0,4.401-3.58,7.981-7.981,7.981h-11.373   c-4.383-30.975-8.851-63.06-13.369-96h24.741c4.401,0,7.981,3.58,7.981,7.981V283.119z" fill="#FFFFFF"/>
	<path d="M231,291.101c-4.418,0-8,3.582-8,8s3.582,8,8,8h48c4.418,0,8-3.582,8-8s-3.582-8-8-8H231z" fill="#FFFFFF"/>
	<path d="M183,299.101c0,8.822,7.178,16,16,16s16-7.178,16-16s-7.178-16-16-16S183,290.278,183,299.101z" fill="#FFFFFF"/>
</g>
<g>
</g>
<g>
</g>
<g>
</g>
<g>
</g>
<g>
</g>
<g>
</g>
<g>
</g>
<g>
</g>
<g>
</g>
<g>
</g>
<g>
</g>
<g>
</g>
<g>
</g>
<g>
</g>
<g>
</g>
</svg>
